<svg width="14" height="15" viewBox="0 0 14 15" fill="none" xmlns="http://www.w3.org/2000/svg">
<path d="M8.00767 2.36597L9.06932 4.49479C9.21327 4.78345 9.59115 5.07212 9.93304 5.12624L11.8584 5.45096C13.082 5.64941 13.3699 6.55147 12.4882 7.43548L10.9947 8.93286C10.7428 9.18544 10.5988 9.67257 10.6888 10.0334L11.1207 11.8916C11.4625 13.3529 10.6888 13.9302 9.39322 13.1544L7.59381 12.09C7.26991 11.8916 6.73009 11.8916 6.40619 12.09L4.60678 13.1544C3.31121 13.9122 2.53746 13.3529 2.87935 11.8916L3.31121 10.0334C3.38319 9.69061 3.25723 9.18544 3.00531 8.93286L1.5118 7.43548C0.630089 6.55147 0.917993 5.66745 2.14159 5.45096L4.06696 5.12624C4.39086 5.07212 4.76873 4.78345 4.91268 4.49479L5.97434 2.36597C6.49616 1.21134 7.43186 1.21134 8.00767 2.36597Z" stroke="white" stroke-width="1.5" stroke-linecap="round" stroke-linejoin="round"/>
</svg>
